<svg aria-hidden="true" style="position: absolute; width: 0; height: 0; overflow: hidden;" version="1.1" xmlns="http://www.w3.org/2000/svg" xmlns:xlink="http://www.w3.org/1999/xlink">
<defs>
<symbol id="icon-herbal" viewBox="0 0 32 32">
<path d="M6.5 18.541l-1-0.082c-0.011 0.131-0.25 3.236 1.5 5.133 0.829 0.871 1.997 1.413 3.292 1.413 0.073 0 0.146-0.002 0.218-0.005l-0.010 0v-1c-0.057 0.003-0.123 0.005-0.19 0.005-1.008 0-1.919-0.416-2.57-1.086l-0.001-0.001c-1.45-1.571-1.243-4.349-1.239-4.377z"></path>
<path d="M20 16.5h6.5v1h-6.5v-1z"></path>
<path d="M18 16.5h1v1h-1v-1z"></path>
<path d="M4.774 14.5h-1.274v6.5c0.005 3.135 2.411 5.706 5.477 5.973l0.023 0.002v3.026h14v-3.026c3.089-0.268 5.495-2.84 5.5-5.974v-6.5h-4.793l3.128-3.127c0.333-0.268 2.587-2.087 3.018-2.519 0.63-0.589 1.023-1.425 1.023-2.354s-0.393-1.764-1.021-2.352l-0.002-0.002c-0.589-0.631-1.425-1.025-2.354-1.025s-1.765 0.394-2.352 1.023l-0.002 0.002c-0.433 0.433-2.259 2.696-2.521 3.021l-7.332 7.332h-2.067c2.269-1.316 3.771-3.732 3.774-6.5v-5.501c0-0.276-0.224-0.5-0.5-0.5v0h-1c-3.5 0.006-6.438 2.407-7.262 5.652l-0.011 0.052c-1.247-2.506-3.788-4.199-6.726-4.204h-0.001c-0.276 0-0.5 0.224-0.5 0.5v0 4c0.003 2.768 1.505 5.184 3.738 6.481l0.036 0.019zM22 29h-8v-1h-1v1h-1v-1h-1v1h-1v-2h12zM25.854 4.854c0.411-0.442 0.997-0.718 1.646-0.718s1.235 0.276 1.645 0.717l0.001 0.001c0.447 0.409 0.727 0.995 0.727 1.647s-0.279 1.237-0.725 1.645l-0.002 0.002c-0.294 0.293-1.761 1.493-2.611 2.182l-2.864-2.864c0.689-0.851 1.889-2.317 2.182-2.611zM23 8.207l2.793 2.793-0.793 0.793-2.793-2.793zM21.5 9.707l2.793 2.793-1.793 1.793-2.793-2.793zM19 12.207l2.293 2.293h-4.586zM27.5 15.5v5.5c-0.003 2.76-2.24 4.997-5 5h-13c-2.76-0.003-4.997-2.24-5-5v-5.5zM9 9.5c0.004-3.588 2.912-6.496 6.5-6.5h0.5v5c-0.004 3.588-2.912 6.496-6.5 6.5h-0.5v-0.241c0.938-0.682 4.536-3.55 4.997-7.704l-0.994-0.11c-0.344 3.095-2.739 5.478-4.003 6.537v-3.482zM2 4.519c3.366 0.272 5.996 3.069 6 6.481v2.086c-1.591-1.203-2.81-2.819-3.508-4.69l-0.024-0.072-0.937 0.35c0.858 2.358 2.418 4.29 4.425 5.59l0.043 0.026v0.19c-3.366-0.272-5.996-3.069-6-6.481v-0z"></path>
<path d="M27.147 6.147l1-1 0.707 0.707-1 1-0.707-0.707z"></path>
<path d="M25.647 7.646l1-1 0.707 0.707-1 1-0.707-0.707z"></path>
</symbol>
<symbol id="icon-Icon-butter" viewBox="0 0 32 32">
<path d="M15.966 27.371c0 0 17.002-8.789 4.358-24.705 0 0-0.834 4.712-5.63 8.347 0 0-5.996 4.945-2.621 11.939 0 0-2.724-1.966-5.764-1.284 0 0-3.379 1.25-6.309-0.145 0 0 2.918 11.478 13.973 6.545 0 0-4.19 0.678-7.882-2.507 0 0 4.141 2.415 8.305 1.627 0 0 5.166-4.983 5.68-13.432 0 0 1.242 5.996-4.11 13.615zM30.85 11.787c-1.078-0.629-2.457-0.251-3.078 0.834s-0.251 2.472 0.83 3.101c0.491 0.282 1.048 0.358 1.562 0.255-0.564 1.596-4.404 11.109-16.411 13.352 0 0 12.67-0.781 18.053-14.682 0.004-0.011 0.004-0.023 0.008-0.034 0.423-1.036 0.030-2.255-0.964-2.827z"></path>
</symbol>
<symbol id="icon" viewBox="0 0 32 32">
<path d="M32 16l-32 16v-32l32 16z"></path>
</symbol>
<symbol id="quote" viewBox="0 0 32 32">
<path d="M25.866 29.831c3.39 0 6.14-2.815 6.14-6.286s-2.75-6.286-6.14-6.286c-6.14 0-2.045-12.155 6.14-12.155v-2.934c-14.612 0-20.334 27.661-6.14 27.661zM8.179 29.831c3.39 0 6.14-2.815 6.14-6.286s-2.75-6.286-6.14-6.286c-6.14 0-2.050-12.155 6.14-12.155v-2.934c-14.612 0-20.339 27.661-6.14 27.661z"></path>
</symbol>
<symbol id="icon-envelope" viewBox="0 0 43 32">
<path d="M38.667 0h-34.667c-2.206 0-4 1.794-4 4v24c0 2.206 1.794 4 4 4h34.667c2.206 0 4-1.794 4-4v-24c0-2.206-1.794-4-4-4zM38.667 2.667c0.181 0 0.353 0.038 0.511 0.103l-17.844 15.466-17.844-15.466c0.158-0.066 0.33-0.103 0.511-0.103h34.667zM38.667 29.333h-34.667c-0.736 0-1.333-0.598-1.333-1.333v-22.413l17.793 15.421c0.251 0.217 0.563 0.326 0.874 0.326s0.622-0.108 0.874-0.326l17.793-15.421v22.413c0 0.736-0.598 1.333-1.333 1.333z"></path>
</symbol>
<symbol id="facebook" viewBox="0 0 32 32">
<path d="M21.329 5.313h2.921v-5.088c-0.504-0.069-2.237-0.225-4.256-0.225-4.212 0-7.097 2.649-7.097 7.519v4.481h-4.648v5.688h4.648v14.312h5.699v-14.311h4.46l0.708-5.688h-5.169v-3.919c0.001-1.644 0.444-2.769 2.735-2.769z"></path>
</symbol>
<symbol id="instagram" viewBox="0 0 32 32">
<path d="M31.969 9.408c-0.075-1.7-0.35-2.869-0.744-3.882-0.406-1.075-1.032-2.038-1.851-2.838-0.8-0.813-1.769-1.444-2.832-1.844-1.019-0.394-2.182-0.669-3.882-0.744-1.713-0.081-2.257-0.1-6.601-0.1s-4.888 0.019-6.595 0.094c-1.7 0.075-2.869 0.35-3.882 0.744-1.075 0.406-2.038 1.031-2.838 1.85-0.813 0.8-1.444 1.769-1.844 2.832-0.394 1.019-0.669 2.182-0.744 3.882-0.081 1.713-0.1 2.257-0.1 6.601s0.019 4.888 0.094 6.595c0.075 1.7 0.35 2.869 0.744 3.882 0.406 1.075 1.038 2.038 1.85 2.838 0.8 0.813 1.769 1.444 2.832 1.844 1.019 0.394 2.182 0.669 3.882 0.744 1.706 0.075 2.25 0.094 6.595 0.094s4.888-0.019 6.595-0.094c1.7-0.075 2.869-0.35 3.882-0.744 2.151-0.832 3.851-2.532 4.682-4.682 0.394-1.019 0.669-2.182 0.744-3.882 0.075-1.707 0.094-2.251 0.094-6.595s-0.006-4.888-0.081-6.595zM29.087 22.473c-0.069 1.563-0.331 2.407-0.55 2.969-0.538 1.394-1.644 2.5-3.038 3.038-0.563 0.219-1.413 0.481-2.969 0.55-1.688 0.075-2.194 0.094-6.464 0.094s-4.782-0.019-6.464-0.094c-1.563-0.069-2.407-0.331-2.969-0.55-0.694-0.256-1.325-0.663-1.838-1.194-0.531-0.519-0.938-1.144-1.194-1.838-0.219-0.563-0.481-1.413-0.55-2.969-0.075-1.688-0.094-2.194-0.094-6.464s0.019-4.782 0.094-6.464c0.069-1.563 0.331-2.407 0.55-2.969 0.256-0.694 0.663-1.325 1.2-1.838 0.519-0.531 1.144-0.938 1.838-1.194 0.563-0.219 1.413-0.481 2.969-0.55 1.688-0.075 2.194-0.094 6.464-0.094 4.276 0 4.782 0.019 6.464 0.094 1.563 0.069 2.407 0.331 2.969 0.55 0.694 0.256 1.325 0.662 1.838 1.194 0.531 0.519 0.938 1.144 1.194 1.838 0.219 0.563 0.481 1.413 0.55 2.969 0.075 1.688 0.094 2.194 0.094 6.464s-0.019 4.77-0.094 6.458z"></path>
<path d="M16.059 7.783c-4.538 0-8.22 3.682-8.22 8.22s3.682 8.22 8.22 8.22c4.539 0 8.22-3.682 8.22-8.22s-3.682-8.22-8.22-8.22zM16.059 21.335c-2.944 0-5.332-2.388-5.332-5.332s2.388-5.332 5.332-5.332c2.944 0 5.332 2.388 5.332 5.332s-2.388 5.332-5.332 5.332z"></path>
<path d="M26.524 7.458c0 1.060-0.859 1.919-1.919 1.919s-1.919-0.859-1.919-1.919c0-1.060 0.859-1.919 1.919-1.919s1.919 0.859 1.919 1.919z"></path>
</symbol>
<symbol id="linkedin" viewBox="0 0 32 32">
<path d="M31.992 32l0.008-0.001v-11.736c0-5.741-1.236-10.164-7.948-10.164-3.227 0-5.392 1.771-6.276 3.449h-0.093v-2.913h-6.364v21.364h6.627v-10.579c0-2.785 0.528-5.479 3.977-5.479 3.399 0 3.449 3.179 3.449 5.657v10.401h6.62z"></path>
<path d="M0.528 10.636h6.635v21.364h-6.635v-21.364z"></path>
<path d="M3.843 0c-2.121 0-3.843 1.721-3.843 3.843s1.721 3.879 3.843 3.879c2.121 0 3.843-1.757 3.843-3.879-0.001-2.121-1.723-3.843-3.843-3.843v0z"></path>
</symbol>
<symbol id="icon-smartphone" viewBox="0 0 20 32">
<path d="M17 0h-14c-1.654 0-3 1.346-3 3v26c0 1.654 1.346 3 3 3h14c1.654 0 3-1.346 3-3v-26c0-1.654-1.346-3-3-3zM3 2h14c0.552 0 1 0.448 1 1v21h-16v-21c0-0.552 0.448-1 1-1zM17 30h-14c-0.552 0-1-0.448-1-1v-3h16v3c0 0.552-0.448 1-1 1z"></path>
<path d="M4.707 27.478c0.391 0.365 0.391 0.956 0 1.321s-1.024 0.365-1.414 0c-0.391-0.365-0.391-0.956 0-1.321s1.024-0.365 1.414 0z"></path>
</symbol>
<symbol id="twitter" viewBox="0 0 32 32">
<path d="M32 6.078c-1.19 0.522-2.458 0.868-3.78 1.036 1.36-0.812 2.398-2.088 2.886-3.626-1.268 0.756-2.668 1.29-4.16 1.588-1.204-1.282-2.92-2.076-4.792-2.076-3.632 0-6.556 2.948-6.556 6.562 0 0.52 0.044 1.020 0.152 1.496-5.454-0.266-10.28-2.88-13.522-6.862-0.566 0.982-0.898 2.106-0.898 3.316 0 2.272 1.17 4.286 2.914 5.452-1.054-0.020-2.088-0.326-2.964-0.808 0 0.020 0 0.046 0 0.072 0 3.188 2.274 5.836 5.256 6.446-0.534 0.146-1.116 0.216-1.72 0.216-0.42 0-0.844-0.024-1.242-0.112 0.85 2.598 3.262 4.508 6.13 4.57-2.232 1.746-5.066 2.798-8.134 2.798-0.538 0-1.054-0.024-1.57-0.090 2.906 1.874 6.35 2.944 10.064 2.944 12.072 0 18.672-10 18.672-18.668 0-0.29-0.010-0.57-0.024-0.848 1.302-0.924 2.396-2.078 3.288-3.406z"></path>
</symbol>
<symbol id="icon-map" viewBox="0 0 32 32">
<path d="M0 6l10-4v24l-10 4z"></path>
<path d="M12 1l10 6v23l-10-5z"></path>
<path d="M24 7l8-6v24l-8 6z"></path>
</symbol>
<symbol id="arrow" viewBox="0 0 32 32">
<path d="M19.414 27.414l10-10c0.781-0.781 0.781-2.047 0-2.828l-10-10c-0.781-0.781-2.047-0.781-2.828 0s-0.781 2.047 0 2.828l6.586 6.586h-19.172c-1.105 0-2 0.895-2 2s0.895 2 2 2h19.172l-6.586 6.586c-0.39 0.39-0.586 0.902-0.586 1.414s0.195 1.024 0.586 1.414c0.781 0.781 2.047 0.781 2.828 0z"></path>
</symbol>
<symbol id="icon-close" viewBox="0 0 32 32">
<path d="M23.733 10.304l-1.504-1.504-5.963 5.963-5.963-5.963-1.504 1.504 5.963 5.963-5.963 5.963 1.504 1.504 5.963-5.963 5.963 5.963 1.504-1.504-5.963-5.963 5.963-5.963z"></path>
</symbol>
<symbol id="icon-menu" viewBox="0 0 32 32">
<path d="M6.4 11.733v-2.133h19.2v2.133h-19.2zM6.4 17.067h19.2v-2.133h-19.2v2.133zM6.4 22.4h19.2v-2.133h-19.2v2.133z"></path>
</symbol>
<symbol id="icon-arrow" viewBox="0 0 9 32">
<path d="M0.45 31.628c0.004 0.064 0.059 0.113 0.123 0.109l1.042-0.062c0.064-0.004 0.113-0.059 0.109-0.123s-0.059-0.112-0.123-0.109l-0.926 0.055-0.055-0.926c-0.004-0.064-0.059-0.113-0.123-0.109s-0.113 0.059-0.109 0.123l0.062 1.042zM3.27 0.408c0.165 0.181 0.326 0.362 0.481 0.544l0.176-0.151c-0.157-0.184-0.319-0.367-0.486-0.55l-0.171 0.156zM4.643 2.066c0.29 0.389 0.56 0.781 0.81 1.174l0.196-0.125c-0.254-0.398-0.527-0.794-0.82-1.188l-0.186 0.138zM6.173 4.472c0.228 0.427 0.435 0.856 0.621 1.285l0.213-0.092c-0.189-0.435-0.398-0.869-0.629-1.302l-0.205 0.109zM7.309 7.090c0.155 0.457 0.289 0.914 0.402 1.371l0.225-0.056c-0.115-0.463-0.251-0.926-0.408-1.389l-0.22 0.075zM7.999 9.86c0.077 0.474 0.135 0.947 0.173 1.418l0.231-0.019c-0.039-0.477-0.097-0.956-0.176-1.437l-0.229 0.037zM8.235 12.706c0.003 0.479-0.013 0.956-0.044 1.429l0.231 0.015c0.032-0.478 0.047-0.961 0.045-1.446l-0.232 0.001zM8.047 15.559c-0.064 0.475-0.143 0.946-0.236 1.411l0.227 0.045c0.094-0.47 0.174-0.945 0.238-1.426l-0.23-0.031zM7.49 18.365c-0.121 0.466-0.254 0.924-0.398 1.375l0.221 0.070c0.145-0.455 0.279-0.917 0.401-1.387l-0.224-0.058zM6.625 21.093c-0.169 0.454-0.348 0.898-0.533 1.332l0.213 0.091c0.186-0.437 0.366-0.884 0.537-1.342l-0.217-0.081zM5.501 23.733c-0.211 0.441-0.427 0.868-0.645 1.281l0.205 0.108c0.219-0.415 0.436-0.845 0.649-1.289l-0.209-0.1zM4.165 26.264c-0.251 0.433-0.5 0.845-0.744 1.234l0.196 0.123c0.246-0.391 0.497-0.805 0.749-1.241l-0.201-0.116zM2.638 28.695c-0.295 0.434-0.574 0.825-0.827 1.168l0.187 0.137c0.254-0.345 0.535-0.738 0.832-1.174l-0.192-0.131zM0.929 31.006c-0.142 0.176-0.255 0.311-0.332 0.402-0.039 0.045-0.068 0.080-0.088 0.102-0.010 0.012-0.017 0.020-0.022 0.026-0.003 0.003-0.004 0.005-0.006 0.006s-0.001 0.001-0.001 0.002-0 0-0 0-0 0-0 0 0 0 0 0 0 0 0 0 0 0 0.087 0.077 0.087 0.077 0.087 0.077 0-0 0-0 0 0 0 0 0 0 0 0 0-0 0-0 0.001-0.001 0.002-0.002 0.003-0.004 0.006-0.007c0.005-0.006 0.013-0.015 0.023-0.027 0.020-0.024 0.051-0.059 0.090-0.105 0.078-0.092 0.192-0.228 0.336-0.406l-0.18-0.146zM0.334 31.635c0.008 0.128 0.117 0.225 0.245 0.218l2.083-0.123c0.128-0.008 0.225-0.117 0.218-0.245s-0.117-0.225-0.245-0.218l-1.852 0.109-0.109-1.852c-0.008-0.128-0.117-0.225-0.245-0.218s-0.225 0.117-0.218 0.245l0.123 2.083zM3.184 0.486c0.164 0.18 0.324 0.36 0.479 0.541l0.352-0.302c-0.158-0.185-0.321-0.369-0.489-0.552l-0.342 0.313zM4.55 2.136c0.288 0.387 0.557 0.776 0.806 1.167l0.391-0.249c-0.255-0.4-0.53-0.799-0.825-1.195l-0.372 0.277zM6.071 4.527c0.227 0.425 0.432 0.85 0.617 1.277l0.425-0.185c-0.19-0.438-0.401-0.875-0.633-1.31l-0.409 0.218zM7.199 7.127c0.154 0.454 0.287 0.908 0.4 1.361l0.45-0.112c-0.116-0.466-0.252-0.932-0.411-1.398l-0.439 0.149zM7.885 9.878c0.077 0.471 0.134 0.941 0.172 1.409l0.462-0.038c-0.039-0.48-0.098-0.962-0.177-1.446l-0.458 0.075zM8.119 12.707c0.003 0.477-0.013 0.95-0.044 1.421l0.463 0.031c0.032-0.481 0.048-0.966 0.045-1.454l-0.464 0.003zM7.932 15.543c-0.064 0.473-0.143 0.941-0.235 1.404l0.455 0.091c0.094-0.472 0.174-0.95 0.239-1.433l-0.46-0.062zM7.378 18.336c-0.12 0.463-0.253 0.92-0.396 1.369l0.442 0.14c0.145-0.457 0.28-0.921 0.403-1.393l-0.449-0.117zM6.517 21.053c-0.169 0.452-0.346 0.895-0.531 1.327l0.427 0.182c0.187-0.438 0.367-0.888 0.539-1.347l-0.434-0.162zM5.397 23.683c-0.21 0.439-0.425 0.865-0.642 1.277l0.41 0.217c0.22-0.416 0.438-0.848 0.651-1.293l-0.418-0.2zM4.064 26.206c-0.25 0.432-0.499 0.843-0.742 1.23l0.393 0.247c0.246-0.392 0.498-0.807 0.751-1.245l-0.401-0.232zM2.542 28.629c-0.294 0.433-0.572 0.822-0.824 1.164l0.373 0.275c0.255-0.346 0.536-0.74 0.834-1.178l-0.383-0.261zM0.839 30.933c-0.142 0.175-0.254 0.309-0.33 0.4-0.038 0.045-0.068 0.079-0.087 0.101-0.010 0.011-0.017 0.020-0.022 0.025-0.002 0.003-0.004 0.005-0.005 0.006s-0.001 0.001-0.001 0.001-0 0-0 0-0 0-0 0 0 0 0 0 0 0 0 0 0 0 0.173 0.154 0.173 0.154 0.173 0.154 0 0 0-0 0 0 0 0 0 0 0 0 0-0 0-0.001 0.001-0.001 0.002-0.002 0.003-0.004 0.006-0.007 0.013-0.015 0.024-0.027c0.021-0.024 0.051-0.059 0.091-0.105 0.079-0.093 0.193-0.23 0.338-0.408l-0.361-0.292z"></path>
</symbol>
</defs>
</svg>
