<svg aria-hidden="true" style="position:absolute;width:0;height:0" xmlns="http://www.w3.org/2000/svg" overflow="hidden">
 <defs>
 <symbol id="icon-quote-icon" viewBox="0 0 37 32">
    <path fill="var(--color1, #ff817e)" d="M29.923 32c3.922 0 7.103-3.256 7.103-7.272s-3.181-7.272-7.103-7.272c-7.103 0-2.366-14.061 7.103-14.061V.001c-16.904 0-23.523 32-7.103 32zM9.462 32c3.922 0 7.103-3.256 7.103-7.272s-3.181-7.272-7.103-7.272c-7.103 0-2.372-14.061 7.103-14.061V.001c-16.904 0-23.529 32-7.103 32z"/>
</symbol>
<symbol id="icon-about-butterfly-icon" viewBox="0 0 38 32">
    <path fill="var(--color1, #ff817e)" d="M19.159 29.646S39.561 19.1 24.389 0c0 0-1.001 5.655-6.757 10.016 0 0-7.195 5.934-3.145 14.327 0 0-3.269-2.359-6.917-1.541 0 0-4.055 1.499-7.57-.174 0 0 3.502 13.774 16.768 7.854 0 0-5.029.814-9.458-3.008 0 0 4.969 2.898 9.966 1.952 0 0 6.199-5.979 6.816-16.119 0 0 1.49 7.195-4.933 16.338zm17.86-18.702c-1.294-.754-2.949-.302-3.694 1.001s-.302 2.967.997 3.721c.59.338 1.257.43 1.874.306-.677 1.915-5.285 13.33-19.694 16.023 0 0 15.205-.937 21.664-17.618.005-.014.005-.027.009-.041a2.728 2.728 0 00-1.157-3.392z"/>
</symbol>
<symbol id="icon-play-icon" viewBox="0 0 32 32">
    <path fill="var(--color1, #ff817e)" d="M32 16L0 32V0l32 16z"/>
</symbol>
<symbol id="icon-office" viewBox="0 0 32 32">
    <path d="M0 32h16V0H0v32zM10 4h4v4h-4V4zm0 8h4v4h-4v-4zm0 8h4v4h-4v-4zM2 4h4v4H2V4zm0 8h4v4H2v-4zm0 8h4v4H2v-4zm16-10h14v2H18zm0 22h4v-8h6v8h4V14H18z"/>
</symbol>
<symbol id="icon-mobile" viewBox="0 0 32 32">
    <path d="M23 0H9C7.35 0 6 1.35 6 3v26c0 1.65 1.35 3 3 3h14c1.65 0 3-1.35 3-3V3c0-1.65-1.35-3-3-3zM12 1.5h8v1h-8v-1zM16 30a2 2 0 11-.001-3.999A2 2 0 0116 30zm8-6H8V4h16v20z"/>
</symbol>
<symbol id="icon-mail4" viewBox="0 0 32 32">
    <path d="M16 0C7.163 0 0 7.163 0 16s7.163 16 16 16 16-7.163 16-16S24.837 0 16 0zM8 8h16c.286 0 .563.061.817.177L16 18.463 7.183 8.176c.254-.116.531-.177.817-.177zM6 22V10c0-.042.002-.084.004-.125l5.864 6.842-5.8 5.8A1.983 1.983 0 015.999 22zm18 2H8c-.177 0-.35-.024-.517-.069l5.691-5.691L16 21.537l2.826-3.297 5.691 5.691c-.167.045-.34.069-.517.069zm2-2c0 .177-.024.35-.069.517l-5.8-5.8 5.865-6.842c.003.041.004.083.004.125v12z"/>
</symbol>
<symbol id="icon-facebook" viewBox="0 0 32 32">
    <path d="M19 6h5V0h-5c-3.86 0-7 3.14-7 7v3H8v6h4v16h6V16h5l1-6h-6V7c0-.542.458-1 1-1z"/>
</symbol>
<symbol id="icon-instagram" viewBox="0 0 32 32">
    <path d="M16 2.881c4.275 0 4.781.019 6.462.094 1.563.069 2.406.331 2.969.55a4.952 4.952 0 011.837 1.194 5.015 5.015 0 011.2 1.838c.219.563.481 1.412.55 2.969.075 1.688.094 2.194.094 6.463s-.019 4.781-.094 6.463c-.069 1.563-.331 2.406-.55 2.969a4.94 4.94 0 01-1.194 1.837 5.02 5.02 0 01-1.837 1.2c-.563.219-1.413.481-2.969.55-1.688.075-2.194.094-6.463.094s-4.781-.019-6.463-.094c-1.563-.069-2.406-.331-2.969-.55a4.952 4.952 0 01-1.838-1.194 5.02 5.02 0 01-1.2-1.837c-.219-.563-.481-1.413-.55-2.969-.075-1.688-.094-2.194-.094-6.463s.019-4.781.094-6.463c.069-1.563.331-2.406.55-2.969a4.964 4.964 0 011.194-1.838 5.015 5.015 0 011.838-1.2c.563-.219 1.412-.481 2.969-.55 1.681-.075 2.188-.094 6.463-.094zM16 0c-4.344 0-4.887.019-6.594.094-1.7.075-2.869.35-3.881.744-1.056.412-1.95.956-2.837 1.85a7.833 7.833 0 00-1.85 2.831C.444 6.538.169 7.7.094 9.4.019 11.113 0 11.656 0 16s.019 4.887.094 6.594c.075 1.7.35 2.869.744 3.881.413 1.056.956 1.95 1.85 2.837a7.82 7.82 0 002.831 1.844c1.019.394 2.181.669 3.881.744 1.706.075 2.25.094 6.594.094s4.888-.019 6.594-.094c1.7-.075 2.869-.35 3.881-.744 1.05-.406 1.944-.956 2.831-1.844s1.438-1.781 1.844-2.831c.394-1.019.669-2.181.744-3.881.075-1.706.094-2.25.094-6.594s-.019-4.887-.094-6.594c-.075-1.7-.35-2.869-.744-3.881a7.506 7.506 0 00-1.831-2.844A7.82 7.82 0 0026.482.843C25.463.449 24.301.174 22.601.099c-1.712-.081-2.256-.1-6.6-.1z"/>
    <path d="M16 7.781c-4.537 0-8.219 3.681-8.219 8.219s3.681 8.219 8.219 8.219 8.219-3.681 8.219-8.219A8.221 8.221 0 0016 7.781zm0 13.55a5.331 5.331 0 110-10.663 5.331 5.331 0 010 10.663zM26.462 7.456a1.919 1.919 0 11-3.838 0 1.919 1.919 0 013.838 0z"/>
</symbol>
<symbol id="icon-twitter" viewBox="0 0 32 32">
    <path d="M32 7.075a12.941 12.941 0 01-3.769 1.031 6.601 6.601 0 002.887-3.631 13.21 13.21 0 01-4.169 1.594A6.565 6.565 0 0022.155 4a6.563 6.563 0 00-6.563 6.563c0 .512.056 1.012.169 1.494A18.635 18.635 0 012.23 5.195a6.56 6.56 0 00-.887 3.3 6.557 6.557 0 002.919 5.463 6.565 6.565 0 01-2.975-.819v.081a6.565 6.565 0 005.269 6.437 6.574 6.574 0 01-2.968.112 6.588 6.588 0 006.131 4.563 13.17 13.17 0 01-9.725 2.719 18.568 18.568 0 0010.069 2.95c12.075 0 18.681-10.006 18.681-18.681 0-.287-.006-.569-.019-.85A13.216 13.216 0 0032 7.076z"/>
</symbol>
<symbol id="icon-vimeo" viewBox="0 0 32 32">
    <path d="M31.988 8.563c-.144 3.113-2.319 7.381-6.525 12.794-4.35 5.65-8.031 8.481-11.044 8.481-1.863 0-3.444-1.719-4.731-5.163-.863-3.156-1.719-6.313-2.581-9.469-.956-3.444-1.981-5.162-3.081-5.162-.237 0-1.075.506-2.513 1.506L.007 9.612A391.952 391.952 0 004.676 5.45C6.782 3.631 8.364 2.675 9.42 2.575c2.487-.237 4.025 1.463 4.6 5.106.619 3.931 1.05 6.375 1.294 7.331.719 3.263 1.506 4.894 2.369 4.894.669 0 1.675-1.056 3.019-3.175 1.337-2.113 2.056-3.725 2.156-4.831.194-1.825-.525-2.744-2.156-2.744-.769 0-1.556.175-2.369.525 1.575-5.15 4.575-7.65 9.012-7.506 3.281.087 4.831 2.219 4.644 6.388z"/>
</symbol>
</defs>
</svg>